<?xml version="1.0" standalone="yes"?>
<svg xmlns="http://www.w3.org/2000/svg" width="174" height="168">
<path style="fill:#161b39; stroke:none;" d="M0 0L0 78L30 78L30 69L13 69C11.3291 55.779 12 42.323 12 29C12 24.7153 10.5482 17.0338 13.0278 13.3179C14.7553 10.7291 18.2748 11.0195 21 11.0008C27.9952 10.9526 35.0054 10.9062 42 11.0039C44.7169 11.0418 48.2325 10.9059 49.9722 13.4336C51.6956 15.9375 50.9998 20.1323 51 23L51 47L84 47L84 31C79.6829 31 72.0445 32.459 68.3179 29.9722C64.7418 27.5859 64.6847 15.5221 67.6034 12.6034C70.1881 10.0187 75.6941 11 79 11L110 11C113.565 11.0002 119.61 10.0014 121.972 13.4336C123.696 15.9376 123 20.1323 123 23L123 47L139 48L139 12L159 12L159 65C159 69.5902 160.905 79.8878 157.397 83.3966C155.141 85.6519 150.886 84.9987 148 85L123 85L123 119L139 119L139 101C143.63 101 153.878 99.0845 157.397 102.603C159.981 105.188 159 110.694 159 114L159 144C159 147.52 160.118 153.679 156.682 155.972C154.333 157.54 150.67 156.999 148 157C141.67 157.003 135.328 157.114 129 156.995C125.119 156.922 121.86 156.358 121.148 151.981C119.551 142.154 121 130.96 121 121L87 121L87 137C91.4385 137 101.065 135.21 103.972 139.434C105.544 141.717 105.016 145.384 104.999 148C104.984 150.39 105.269 153.425 103.397 155.258C100.725 157.873 95.3873 157 92 157L61 157C57.4798 157 51.3206 158.118 49.0278 154.682C47.3166 152.118 48.0002 147.917 48 145L48 121L32 121L32 138C32 142.503 33.5713 150.787 30.9722 154.682C28.4732 158.427 15.5268 158.427 13.0278 154.682C10.5482 150.966 12 143.285 12 139L12 100C12 95.6286 10.3981 87.0196 13.7423 83.6034C16.8265 80.4527 24.952 82 29 82C21.1116 78.6899 8.55081 81 0 81L0 168L174 168L174 0L0 0z"/>
<path style="fill:#1b2745; stroke:none;" d="M13 11C16.9586 12.6611 21.7396 12 26 12L49 12C45.0414 10.3389 40.2604 11 36 11L13 11z"/>
<path style="fill:#1e2645; stroke:none;" d="M66 30C67.955 25.341 64.8773 17.3295 68.6034 13.6034C71.6139 10.5928 79.12 12 83 12L121 12C116.785 10.2313 111.536 11 107 11L80 11C76.6845 11 69.3676 9.64919 67.0278 12.6034C64.2099 16.1613 66 25.6371 66 30z"/>
<path style="fill:#223c57; stroke:none;" d="M12 12L12 66C13.6611 62.0414 13 57.2603 13 53L13 27C13 22.1913 13.8752 16.4687 12 12z"/>
<path style="fill:#3d8799; stroke:none;" d="M13 12C16.9586 13.6611 21.7396 13 26 13L49 13C45.0414 11.3389 40.2604 12 36 12L13 12z"/>
<path style="fill:#31687e; stroke:none;" d="M49 12L49 48C51.9032 41.0813 50 30.4798 50 23C50 19.2976 50.4412 15.4346 49 12z"/>
<path style="fill:#202946; stroke:none;" d="M50 12L50 48L85 48L85 31C83.0178 35.7238 84 41.9098 84 47L51 47L51 24C51 20.0172 51.552 15.6987 50 12z"/>
<path style="fill:#58798c; stroke:none;" d="M68 12C72.9691 14.0851 79.6497 13 85 13L121 13L121 48C122.661 44.0414 122 39.2603 122 35L122 12L68 12z"/>
<path style="fill:#1f2846; stroke:none;" d="M122 12L122 48L134 48C130.568 46.5597 126.7 47 123 47L123 24C123 20.0172 123.552 15.6986 122 12z"/>
<path style="fill:#344a72; stroke:none;" d="M139 12L139 48L121 48L121 84C122.552 80.3013 122 75.9828 122 72L122 49L140 49L140 25C140 20.7397 140.661 15.9586 139 12z"/>
<path style="fill:#3c5481; stroke:none;" d="M140 12C144.974 14.0872 151.638 13 157 13L157 84C159.701 77.5639 158 67.951 158 61L158 12L140 12z"/>
<path style="fill:#1d2446; stroke:none;" d="M158 12L158 84C160.292 78.5375 159 70.887 159 65L159 29C159 23.6497 160.085 16.9691 158 12z"/>
<path style="fill:#45a0ad; stroke:none;" d="M13 13L13 66C14.6611 62.0414 14 57.2603 14 53L14 28C14 23.1913 14.8752 17.4688 13 13z"/>
<path style="fill:#5ce0e6; stroke:none;" d="M14 13L14 66L30 66C30 61.4105 28.2605 52.1602 31.7423 48.6034C34.9505 45.3261 43.7733 47 48 47L48 13L14 13z"/>
<path style="fill:#51c3cd; stroke:none;" d="M48 13L48 48C50.8021 41.3223 49 31.2156 49 24C49 20.2976 49.4412 16.4346 48 13z"/>
<path style="fill:#5a7d91; stroke:none;" d="M67 13L67 30C68.8826 25.5135 68.8826 17.4865 67 13z"/>
<path style="fill:#93cfd9; stroke:none;" d="M68 13L68 29C72.782 29 81.9546 27.2326 85.3966 31.3179C88.4478 34.9394 87 42.5693 87 47L121 47L121 13L68 13z"/>
<path style="fill:#5a81b8; stroke:none;" d="M140 13L140 49L122 49L122 83C123.552 79.3014 123 74.9828 123 71L123 50L139 50C134.147 51.4345 129.036 51 124 51L124 82L156 82L156 15L142 15L142 48C138.971 37.7528 141 24.6699 141 14L156 14C151.276 12.0178 145.09 13 140 13z"/>
<path style="fill:#5e87c0; stroke:none;" d="M156 13C151.147 14.4345 146.036 14 141 14L141 48C142.552 44.3013 142 39.9828 142 36L142 15L156 15L156 82L124 82L124 51L139 51C134.276 49.0178 128.09 50 123 50L123 83L157 83L157 35C157 28.3141 158.599 19.194 156 13z"/>
<path style="fill:#88c0cb; stroke:none;" d="M68 29C72.9741 31.0872 79.638 30 85 30C80.0259 27.9128 73.362 29 68 29z"/>
<path style="fill:#48647a; stroke:none;" d="M67 30C72.2224 32.1914 79.3677 31 85 31C79.7776 28.8086 72.6323 30 67 30z"/>
<path style="fill:#587a8e; stroke:none;" d="M85 30L85 48L49 48C52.9586 49.6611 57.7397 49 62 49L85 49L85 60C86.4403 56.5676 86 52.7002 86 49L121 49C117.301 47.448 112.983 48 109 48L86 48C86 42.3678 87.1914 35.2224 85 30z"/>
<path style="fill:#8cc5d0; stroke:none;" d="M86 31L86 48L121 48C117.301 46.448 112.983 47 109 47L87 47C87 41.9098 87.9822 35.7238 86 31z"/>
<path style="fill:#57d4dc; stroke:none;" d="M31 47C35.974 49.0872 42.6381 48 48 48C43.026 45.9128 36.3619 47 31 47z"/>
<path style="fill:#3a8295; stroke:none;" d="M31 48C36.2224 50.1914 43.3677 49 49 49C43.7776 46.8086 36.6322 48 31 48z"/>
<path style="fill:#50bfc9; stroke:none;" d="M30 49L30 66C31.8826 61.5136 31.8826 53.4865 30 49z"/>
<path style="fill:#2e5f74; stroke:none;" d="M31 49L31 66C32.8826 61.5136 32.8826 53.4865 31 49z"/>
<path style="fill:#1e304b; stroke:none;" d="M32 49C36.7238 50.9822 42.9098 50 48 50C43.2762 48.0178 37.0902 49 32 49z"/>
<path style="fill:#2c3953; stroke:none;" d="M48 49L48 84C49.4412 80.5655 49 76.7024 49 73C49 65.7844 50.8021 55.6777 48 49z"/>
<path style="fill:#6d989e; stroke:none;" d="M49 49L49 84C50.4412 80.5655 50 76.7024 50 73C50 65.7844 51.8021 55.6777 49 49z"/>
<path style="fill:#98d7d2; stroke:none;" d="M50 49C53.6987 50.552 58.0172 50 62 50L84 50L84 60C85.4403 56.5676 85 52.7002 85 49L50 49z"/>
<path style="fill:#242e4b; stroke:none;" d="M86 49L86 60L105 60C99.7776 57.8086 92.6322 59 87 59L87 50L121 50C117.301 48.448 112.983 49 109 49L86 49z"/>
<path style="fill:#161b39; stroke:none;" d="M32 50C32 55.8154 32.796 61.7607 30 67C32.0041 70.6036 31.9969 73.9479 32 78L47 78L47 50L32 50z"/>
<path style="fill:#11152f; stroke:none;" d="M47 50L47 78L32 78L32 68L13 68C17.974 70.0872 24.638 69 30 69L30 78L0 78L0 81L29 81C23.854 82.5211 18.3395 82 13 82C16.6987 83.552 21.0172 83 25 83L48 83L48 62C48 58.0172 48.552 53.6987 47 50z"/>
<path style="fill:#a1e4db; stroke:none;" d="M50 50L50 83C52.7006 76.5642 51.0004 66.9507 51 60C50.9998 56.5814 51.3283 53.1656 50 50z"/>
<path style="fill:#aaf0e5; stroke:none;" d="M51 50L51 83L84 83C84.002 80.3727 83.4512 76.7227 85.0278 74.4336C88.1136 69.9533 99.2555 72 104 72L104 61C99.3596 61 87.9691 63.0869 85.0278 58.6821C83.462 56.3373 84.0021 52.673 84 50L51 50z"/>
<path style="fill:#161b39; stroke:none;" d="M87 50L87 59C91.5368 59 99.7751 57.4207 103.682 60.0278C107.066 62.2856 107.059 70.5674 103.682 72.821C99.6489 75.5123 91.6568 74 87 74L87 83L121 83L121 50L87 50z"/>
<path style="fill:#709da1; stroke:none;" d="M85 60C90.4692 62.295 98.0987 61 104 61C98.5308 58.705 90.9012 60 85 60z"/>
<path style="fill:#618791; stroke:none;" d="M104 60L104 73C105.591 69.2087 105.591 63.7913 104 60z"/>
<path style="fill:#212a47; stroke:none;" d="M105 60L105 73C106.591 69.2087 106.591 63.7913 105 60z"/>
<path style="fill:#397e90; stroke:none;" d="M13 66C18.2224 68.1914 25.3677 67 31 67C25.7776 64.8086 18.6322 66 13 66z"/>
<path style="fill:#1e2e4b; stroke:none;" d="M13 67C17.974 69.0872 24.638 68 30 68C25.026 65.9128 18.3619 67 13 67z"/>
<path style="fill:#75a3a7; stroke:none;" d="M86 72C91.2224 74.1914 98.3677 73 104 73C98.7776 70.8086 91.6322 72 86 72z"/>
<path style="fill:#9cdbd4; stroke:none;" d="M84 73L84 83C85.3457 79.793 85.3457 76.207 84 73z"/>
<path style="fill:#618892; stroke:none;" d="M85 73L85 96C87.2838 90.5574 87.2838 78.4426 85 73z"/>
<path style="fill:#2e3c55; stroke:none;" d="M86 73C91.2224 75.1914 98.3677 74 104 74C98.7776 71.8086 91.6322 73 86 73z"/>
<path style="fill:#1f2744; stroke:none;" d="M86 74L86 83C87.2561 80.0059 87.2561 76.9941 86 74z"/>
<path style="fill:#20294c; stroke:none;" d="M13 83C16.6987 84.552 21.0172 84 25 84L48 84C44.3013 82.448 39.9828 83 36 83L13 83z"/>
<path style="fill:#92cdc8; stroke:none;" d="M50 83C53.6987 84.552 58.0172 84 62 84L85 84C81.3013 82.448 76.9828 83 73 83L50 83z"/>
<path style="fill:#2e3c55; stroke:none;" d="M86 83C89.6987 84.552 94.0172 84 98 84L121 84C117.301 82.448 112.983 83 109 83L86 83z"/>
<path style="fill:#5071a4; stroke:none;" d="M122 83C125.699 84.552 130.017 84 134 84L157 84C153.301 82.448 148.983 83 145 83L122 83z"/>
<path style="fill:#212b4d; stroke:none;" d="M12 84L12 156C14.0851 151.031 13 144.35 13 139L13 103C13 97.113 14.2922 89.4625 12 84z"/>
<path style="fill:#446090; stroke:none;" d="M13 84L13 156L31 156C26.026 153.913 19.3619 155 14 155L14 85L49 85C45.0414 83.3389 40.2604 84 36 84L13 84z"/>
<path style="fill:#496475; stroke:none;" d="M49 84C52.9586 85.6611 57.7397 85 62 85L85 85C81.0414 83.3389 76.2603 84 72 84L49 84z"/>
<path style="fill:#75a2a7; stroke:none;" d="M86 84C89.6987 85.552 94.0172 85 98 85L121 85C117.301 83.448 112.983 84 109 84L86 84z"/>
<path style="fill:#638a93; stroke:none;" d="M121 84L121 120C123.903 113.081 122 102.48 122 95C122 91.2976 122.441 87.4345 121 84z"/>
<path style="fill:#2c3d64; stroke:none;" d="M122 84C125.959 85.6611 130.74 85 135 85L158 85C154.041 83.3389 149.26 84 145 84L122 84z"/>
<path style="fill:#5a81b8; stroke:none;" d="M14 85L14 155L30 155L30 130C30.0014 126.85 29.263 122.066 32.3179 120.028C36.0445 117.541 43.683 119 48 119L48 85L14 85z"/>
<path style="fill:#5172a6; stroke:none;" d="M48 85L48 119C50.8019 112.323 49.0005 102.215 49 95C48.9998 91.5814 49.3283 88.1656 48 85z"/>
<path style="fill:#394c66; stroke:none;" d="M49 85L49 120L85 120C81.3013 118.448 76.9828 119 73 119L50 119L50 97C50 93.0172 50.552 88.6987 49 85z"/>
<path style="fill:#161b39; stroke:none;" d="M50 85L50 119L85 119L85 109C80.4632 109 72.2248 110.579 68.3179 107.972C65.0327 105.78 65.0327 98.22 68.3179 96.0278C72.2248 93.4207 80.4632 95 85 95L85 85L50 85z"/>
<path style="fill:#aaf0e5; stroke:none;" d="M86 85C85.9997 87.9244 86.6818 92.1206 84.9722 94.6821C82.1918 98.8481 72.3484 97 68 97L68 107C72.593 107 82.9743 105.079 85.9722 109.434C87.6936 111.934 86.9997 116.125 87 119L121 119L121 85L86 85z"/>
<path style="fill:#202a47; stroke:none;" d="M122 85L122 119C123.328 115.834 123 112.419 123 109C123 101.785 124.802 91.6774 122 85z"/>
<path style="fill:#4c697a; stroke:none;" d="M67 95C72.2224 97.1914 79.3678 96 85 96C79.7776 93.8086 72.6322 95 67 95z"/>
<path style="fill:#435b6d; stroke:none;" d="M66 96L66 108C67.5124 104.396 67.5124 99.6043 66 96z"/>
<path style="fill:#8cc6c4; stroke:none;" d="M67 96L67 108L85 108C80.026 105.913 73.362 107 68 107L68 97L85 97C79.7776 94.8086 72.6322 96 67 96z"/>
<path style="fill:#284b64; stroke:none;" d="M139 101C144.469 103.295 152.099 102 158 102C152.531 99.705 144.901 101 139 101z"/>
<path style="fill:#357085; stroke:none;" d="M139 102L139 120C140.952 115.349 140.952 106.651 139 102z"/>
<path style="fill:#4eb8c3; stroke:none;" d="M140 102C144.974 104.087 151.638 103 157 103C152.026 100.913 145.362 102 140 102z"/>
<path style="fill:#3e8b9c; stroke:none;" d="M157 102L157 156C158.661 152.041 158 147.26 158 143L158 117C158 112.191 158.875 106.469 157 102z"/>
<path style="fill:#1e314e; stroke:none;" d="M158 102L158 156C159.661 152.041 159 147.26 159 143L159 117C159 112.191 159.875 106.469 158 102z"/>
<path style="fill:#56d1d9; stroke:none;" d="M140 103L140 120C141.883 115.514 141.883 107.486 140 103z"/>
<path style="fill:#5ce0e6; stroke:none;" d="M141 103C141 107.227 142.674 116.05 139.397 119.258C135.973 122.609 127.404 121 123 121L123 155L157 155L157 103L141 103z"/>
<path style="fill:#455f70; stroke:none;" d="M67 108C72.2224 110.191 79.3678 109 85 109C79.7776 106.809 72.6322 108 67 108z"/>
<path style="fill:#618892; stroke:none;" d="M85 108L85 120C86.5124 116.396 86.5124 111.604 85 108z"/>
<path style="fill:#9fe0d8; stroke:none;" d="M86 108L86 119C87.4309 115.59 87.4309 111.41 86 108z"/>
<path style="fill:#466394; stroke:none;" d="M31 119C36.2224 121.191 43.3678 120 49 120C43.7776 117.809 36.6322 119 31 119z"/>
<path style="fill:#7eb2b2; stroke:none;" d="M86 119C89.6987 120.552 94.0172 120 98 120L121 120C117.301 118.448 112.983 119 109 119L86 119z"/>
<path style="fill:#2a526a; stroke:none;" d="M122 119C126.974 121.087 133.638 120 139 120C134.026 117.913 127.362 119 122 119z"/>
<path style="fill:#4e70a3; stroke:none;" d="M30 120L30 155C31.4412 151.565 31 147.702 31 144C31 136.784 32.8021 126.678 30 120z"/>
<path style="fill:#2c3d63; stroke:none;" d="M31 120L31 156C32.4412 152.565 32 148.702 32 145C32 137.52 33.9032 126.919 31 120z"/>
<path style="fill:#283350; stroke:none;" d="M32 120C36.7238 121.982 42.9098 121 48 121L48 156C49.6611 152.041 49 147.26 49 143L49 120L32 120z"/>
<path style="fill:#5f8497; stroke:none;" d="M49 120L49 156C51.9032 149.081 50 138.48 50 131C50 127.298 50.4412 123.435 49 120z"/>
<path style="fill:#7cadbc; stroke:none;" d="M50 120C53.6987 121.552 58.0172 121 62 121L85 121C81.3013 119.448 76.9828 120 73 120L50 120z"/>
<path style="fill:#506f83; stroke:none;" d="M85 120L85 138C86.9516 133.349 86.9516 124.651 85 120z"/>
<path style="fill:#304058; stroke:none;" d="M86 120C89.6987 121.552 94.0172 121 98 121L121 121C117.301 119.448 112.983 120 109 120L86 120z"/>
<path style="fill:#357587; stroke:none;" d="M121 120L121 156C123.903 149.081 122 138.48 122 131C122 127.298 122.441 123.435 121 120z"/>
<path style="fill:#4fbcc6; stroke:none;" d="M122 120C126.974 122.087 133.638 121 139 121C134.026 118.913 127.362 120 122 120z"/>
<path style="fill:#93cfd9; stroke:none;" d="M50 121L50 155L103 155L103 139C98.5453 139 89.0018 140.795 85.6034 137.397C82.3285 134.122 84 125.277 84 121L50 121z"/>
<path style="fill:#88c0cb; stroke:none;" d="M84 121L84 138C85.8826 133.514 85.8826 125.486 84 121z"/>
<path style="fill:#1e2644; stroke:none;" d="M86 121L86 137C87.8123 132.681 87.8123 125.319 86 121z"/>
<path style="fill:#58d1d9; stroke:none;" d="M122 121L122 155C123.328 151.834 123 148.419 123 145C123 137.785 124.802 127.677 122 121z"/>
<path style="fill:#31425c; stroke:none;" d="M86 137C90.974 139.087 97.638 138 103 138C98.026 135.913 91.362 137 86 137z"/>
<path style="fill:#6c98a9; stroke:none;" d="M85 138C90.2224 140.191 97.3678 139 103 139C97.7776 136.809 90.6322 138 85 138z"/>
<path style="fill:#537488; stroke:none;" d="M103 138L103 156C104.952 151.349 104.952 142.651 103 138z"/>
<path style="fill:#1e2745; stroke:none;" d="M104 138L104 156C105.952 151.349 105.952 142.651 104 138z"/>
<path style="fill:#72a0b0; stroke:none;" d="M50 155C54.9691 157.085 61.6497 156 67 156L103 156C98.031 153.915 91.3503 155 86 155L50 155z"/>
<path style="fill:#4aadba; stroke:none;" d="M122 155C125.699 156.552 130.017 156 134 156L157 156C153.301 154.448 148.983 155 145 155L122 155z"/>
<path style="fill:#273559; stroke:none;" d="M13 156C18.2224 158.191 25.3678 157 31 157C25.7776 154.809 18.6322 156 13 156z"/>
<path style="fill:#374b64; stroke:none;" d="M49 156C54.2165 158.189 61.3809 157 67 157L103 157C97.7835 154.811 90.6191 156 85 156L49 156z"/>
<path style="fill:#295068; stroke:none;" d="M122 156C125.959 157.661 130.74 157 135 157L158 157C154.041 155.339 149.26 156 145 156L122 156z"/>
</svg>
